# xmcd CD database file
#
# Track frame offsets:
#	150
#	18101
#	29345
#	44419
#	62358
#	78257
#	95628
#	109369
#	118972
#	139268
#	150267
#	166428
#	177730
#	190458
#	204008
#	217369
#	240056
#	259449
#
# Disc length: 3801 seconds
#
# Revision: 0
# Processed by: cddbd v1.5.2PL0 Copyright (c) Steve Scherf et al.
# Submitted via: CDex 1.70beta2
#
DISCID=fd0ed712
DTITLE=Various Artist - Humberto Teixeira — O Doutor do Baião
DYEAR=2003
DGENRE=Jazz
TTITLE0=Maria Bethânia - Asa Branca
TTITLE1=Caetano Veloso - Baião de Dois
TTITLE2=Gal Costa and Sivuca - Adeus Maria Fulô
TTITLE3=Chico Buarque - Kalu
TTITLE4=Carmélia Alves - Baião
TTITLE5=Cordel do Fogo Encantado - Mangaratiba
TTITLE6=Rita Ribeiro - Sinfonia do Café
TTITLE7=Gilberto Gil - No Meu Pé de Serra
TTITLE8=Gilberto Gil - Juazeiro
TTITLE9=Lenine - Respeita Januário
TTITLE10=Lenine - Qui nem Jiló
TTITLE11=Zeca Pagodinho - Deus me Perdoe
TTITLE12=Fagner - Dono dos Teus Olhos
TTITLE13=Fagner - Xanduzinha
TTITLE14=Fagner and Elba Ramalho - Légua Tirana
TTITLE15=Elba Ramalho - Paraíba
TTITLE16=Elba Ramalho - Assum Preto
TTITLE17=Sivuca, Rita Ribeiro/Carmélia Alves, Elba Ramalho, Lenine, Fagner, Gilberto Gil - Asa Branca
EXTD=YEAR: 2003
EXTT0=
EXTT1=
EXTT2=
EXTT3=
EXTT4=
EXTT5=
EXTT6=
EXTT7=
EXTT8=
EXTT9=
EXTT10=
EXTT11=
EXTT12=
EXTT13=
EXTT14=
EXTT15=
EXTT16=
EXTT17=
PLAYORDER=
